<svg width="25" height="28" viewBox="0 0 25 28" fill="none" xmlns="http://www.w3.org/2000/svg">
<path d="M15.6396 0.590916C18.2407 1.21596 20.1545 3.40796 21.7365 5.5745C23.1735 7.54245 23.8365 9.89608 24.1976 12.3111C24.5435 14.6252 24.6287 17.0008 23.7702 19.1773C22.9151 21.3452 21.3403 23.1547 19.41 24.4489C17.5293 25.71 15.2832 26.0414 13.0467 26.3676C10.6147 26.7224 7.93681 27.6907 5.82512 26.4306C3.71609 25.1721 3.41028 22.2976 2.43479 20.0353C1.53973 17.9596 0.201347 15.9841 0.346541 13.7253C0.49296 11.4475 1.97133 9.57306 3.22953 7.67164C4.57702 5.63529 5.81886 3.46514 7.93471 2.25792C10.2673 0.92704 13.033 -0.0354542 15.6396 0.590916Z" fill="#FFA07D"/>
</svg>
