<svg width="25" height="28" viewBox="0 0 25 28" fill="none" xmlns="http://www.w3.org/2000/svg">
<path d="M13.7762 0.0777563C16.1428 0.573173 16.9627 3.56579 18.8058 5.13039C20.4824 6.55361 23.1733 6.86758 24.1153 8.85449C25.0577 10.8422 24.3397 13.2385 23.6386 15.3236C23.0194 17.1655 21.6833 18.6006 20.36 20.0239C19.1606 21.3138 17.6877 22.1799 16.2796 23.2383C14.4489 24.6144 13.0944 27.3823 10.811 27.2016C8.54971 27.0226 7.78531 23.9742 6.12012 22.4344C4.67781 21.1006 2.66432 20.4261 1.6591 18.7385C0.601356 16.9627 0.282973 14.8464 0.370434 12.7815C0.46149 10.6317 0.9569 8.47444 2.16915 6.69643C3.40104 4.8896 5.33803 3.79228 7.23796 2.70888C9.31405 1.52504 11.4368 -0.411943 13.7762 0.0777563Z" fill="#A989AE"/>
</svg>
