<svg width="26" height="31" viewBox="0 0 26 31" fill="none" xmlns="http://www.w3.org/2000/svg">
<path d="M11.4549 4.12464C13.2403 4.51983 14.5539 5.90574 15.6398 7.27555C16.6262 8.5198 17.0813 10.0079 17.3291 11.5348C17.5666 12.9979 17.625 14.4999 17.0358 15.876C16.4488 17.2467 15.3679 18.3907 14.0429 19.209C12.752 20.0064 11.2102 20.2159 9.67509 20.4221C8.00578 20.6464 6.16764 21.2586 4.71816 20.462C3.27051 19.6663 3.0606 17.8488 2.39102 16.4185C1.77664 15.1061 0.857967 13.8571 0.95763 12.429C1.05813 10.9888 2.07289 9.80367 2.93653 8.60148C3.86146 7.31398 4.71387 5.94189 6.1662 5.17862C7.7673 4.33716 9.6657 3.72862 11.4549 4.12464Z" fill="#FFA07D"/>
<path opacity="0.945665" d="M12.5207 18.3224C14.0872 18.5059 15.7103 18.8407 16.7176 19.9693C17.7453 21.1209 17.9398 22.6931 17.7464 24.1776C17.5532 25.6609 16.9255 27.1017 15.667 28.0333C14.4001 28.9711 12.7397 29.2318 11.1278 29.0771C9.48515 28.9194 7.84298 28.3878 6.82049 27.1841C5.79642 25.9785 5.62327 24.3711 5.83714 22.8487C6.04856 21.3439 6.65707 19.8404 7.97788 18.9459C9.26339 18.0754 10.9419 18.1376 12.5207 18.3224Z" fill="#FCBF80"/>
<path d="M17.8258 5.9882C19.6187 6.33492 20.2397 8.42932 21.6359 9.52432C22.906 10.5204 24.9444 10.7401 25.6581 12.1306C26.372 13.5218 25.828 15.1988 25.297 16.6581C24.8278 17.9472 23.8158 18.9515 22.8133 19.9476C21.9047 20.8504 20.7889 21.4565 19.7223 22.1973C18.3354 23.1603 17.3093 25.0974 15.5796 24.971C13.8666 24.8457 13.2876 22.7123 12.0261 21.6346C10.9335 20.7012 9.40823 20.2291 8.64675 19.048C7.84547 17.8052 7.60428 16.3242 7.67054 14.879C7.73952 13.3745 8.11481 11.8647 9.03312 10.6203C9.96632 9.3558 11.4337 8.58783 12.8729 7.8296C14.4456 7.00108 16.0537 5.64548 17.8258 5.9882Z" fill="#A989AE"/>
</svg>
