<svg width="1234" height="134" viewBox="0 0 1234 134" fill="none" xmlns="http://www.w3.org/2000/svg">
<path opacity="0.05" d="M44.5169 12.9718H13.1301V121.033H39.6209C48.6552 121.033 56.2032 120.071 62.2649 118.148C68.3266 116.166 73.2225 112.931 76.9528 108.443C80.7414 103.956 83.4225 98.3601 84.9962 91.6573C86.6282 84.9544 87.4442 76.5904 87.4442 66.5653C87.4442 57.5894 86.7739 49.9539 85.4334 43.6591C84.0928 37.306 81.8197 31.7689 78.614 27.0477C75.4082 22.2683 70.9785 18.742 65.3248 16.4689C59.7294 14.1375 52.7935 12.9718 44.5169 12.9718ZM0.3656 3.00493H44.4295C53.6969 3.00493 61.682 4.11236 68.3848 6.32721C75.0877 8.48378 80.8288 12.0392 85.6082 16.9935C90.4459 21.8895 94.0305 28.4466 96.3619 36.6648C98.7516 44.8248 99.9465 54.7625 99.9465 66.4779C99.9465 81.9819 97.9065 94.4841 93.8265 103.985C89.7465 113.485 83.6265 120.363 75.4665 124.618C67.3648 128.873 56.8152 131 43.8175 131H0.3656V3.00493ZM226.753 0.644369C235.262 0.644369 242.723 1.86837 249.134 4.31636C255.604 6.76435 261.199 10.5529 265.92 15.682C270.642 20.8112 274.197 27.6306 276.587 36.1403C279.035 44.5917 280.259 54.6168 280.259 66.2156C280.259 89.5298 275.742 106.52 266.707 117.186C257.673 127.853 244.326 133.186 226.665 133.186C218.097 133.186 210.607 131.962 204.196 129.514C197.785 127.066 192.247 123.219 187.585 117.973C182.922 112.727 179.395 105.791 177.006 97.1652C174.674 88.539 173.509 78.2516 173.509 66.303C173.509 54.6459 174.704 44.5917 177.093 36.1403C179.541 27.6306 183.097 20.8112 187.759 15.682C192.422 10.4946 197.959 6.70607 204.371 4.31636C210.841 1.86837 218.301 0.644369 226.753 0.644369ZM226.665 10.8735C220.603 10.8735 215.27 11.7186 210.666 13.4089C206.119 15.0992 202.331 17.4889 199.3 20.578C196.327 23.6089 193.909 27.4557 192.043 32.1186C190.178 36.7814 188.838 41.8814 188.022 47.4185C187.264 52.8974 186.885 59.1631 186.885 66.2156C186.885 85.8578 189.916 100.225 195.978 109.318C202.039 118.352 212.298 122.869 226.753 122.869C241.266 122.869 251.553 118.381 257.615 109.405C263.676 100.429 266.707 86.0618 266.707 66.303C266.707 59.2505 266.299 52.9556 265.483 47.4185C264.726 41.8814 263.385 36.7814 261.462 32.1186C259.596 27.4557 257.148 23.6089 254.118 20.578C251.087 17.4889 247.269 15.0992 242.664 13.4089C238.118 11.7186 232.785 10.8735 226.665 10.8735ZM369.645 12.3598V57.8225H389.579C393.076 57.8225 395.99 57.8225 398.322 57.8225C400.712 57.7642 403.276 57.6768 406.016 57.5602C408.813 57.3854 411.086 57.1814 412.835 56.9482C414.642 56.7151 416.565 56.3945 418.605 55.9865C420.645 55.5785 422.277 55.0831 423.501 54.5002C424.783 53.9174 426.066 53.2179 427.348 52.4019C428.63 51.5277 429.65 50.5368 430.408 49.4294C431.166 48.3219 431.836 47.0397 432.419 45.5825C433.06 44.1254 433.497 42.5225 433.73 40.774C434.022 38.9671 434.167 36.9854 434.167 34.8288C434.167 32.4391 433.934 30.2826 433.468 28.3591C433.06 26.3774 432.477 24.6872 431.719 23.2883C431.02 21.8312 430.029 20.5489 428.747 19.4415C427.523 18.2757 426.27 17.314 424.987 16.5563C423.764 15.7986 422.19 15.1575 420.266 14.6329C418.401 14.05 416.653 13.642 415.021 13.4089C413.447 13.1175 411.436 12.8843 408.988 12.7095C406.598 12.5346 404.5 12.4472 402.693 12.4472C400.945 12.3889 398.701 12.3598 395.961 12.3598H369.645ZM369.733 67.1773V121.645H397.185C400.508 121.645 403.305 121.616 405.578 121.558C407.852 121.441 410.504 121.208 413.534 120.858C416.624 120.45 419.188 119.897 421.228 119.197C423.268 118.439 425.395 117.419 427.61 116.137C429.825 114.797 431.603 113.194 432.943 111.329C434.284 109.463 435.362 107.132 436.178 104.334C437.053 101.478 437.49 98.2727 437.49 94.7172C437.49 91.803 437.227 89.1801 436.703 86.8487C436.237 84.459 435.625 82.3607 434.867 80.5539C434.109 78.747 433.031 77.1733 431.632 75.8327C430.233 74.4339 428.863 73.2682 427.523 72.3356C426.182 71.403 424.463 70.6162 422.365 69.975C420.266 69.2756 418.314 68.751 416.507 68.4013C414.758 68.0516 412.573 67.7893 409.95 67.6145C407.327 67.4396 404.996 67.323 402.956 67.2648C400.974 67.2065 398.497 67.1773 395.524 67.1773H369.733ZM356.968 131V3.00493H395.349C399.429 3.00493 403.13 3.1215 406.453 3.35465C409.833 3.5295 413.33 3.90836 416.944 4.49122C420.558 5.07407 423.734 5.86093 426.474 6.85178C429.271 7.84263 431.953 9.15406 434.517 10.7861C437.082 12.418 439.18 14.3415 440.812 16.5563C442.502 18.7712 443.843 21.4815 444.834 24.6872C445.825 27.8346 446.32 31.3609 446.32 35.266C446.32 50.3037 438.422 59.1922 422.627 61.9316C431.778 63.7385 438.655 67.527 443.26 73.2973C447.865 79.0676 450.167 86.2658 450.167 94.8921C450.167 102.061 449.059 107.977 446.845 112.64C444.63 117.303 441.045 121.004 436.091 123.743C431.137 126.425 425.191 128.319 418.256 129.426C411.32 130.475 402.635 131 392.202 131H356.968ZM602.065 131H523.991V3.00493H536.756V121.121H602.065V131ZM752.564 131H666.884V3.00493H751.602V12.7969H679.649V57.7351H742.247V67.7893H679.649V121.121H752.564V131ZM818.432 80.8161V3.00493H832.421V78.7179C832.421 84.1967 832.683 89.0053 833.208 93.1435C833.732 97.2818 834.752 101.274 836.268 105.121C837.783 108.91 839.794 112.028 842.3 114.476C844.807 116.924 848.1 118.877 852.18 120.334C856.318 121.733 861.185 122.432 866.78 122.432C872.376 122.432 877.213 121.733 881.293 120.334C885.373 118.877 888.637 116.924 891.085 114.476C893.592 112.028 895.573 108.91 897.03 105.121C898.546 101.274 899.566 97.2818 900.09 93.1435C900.615 89.0053 900.877 84.1967 900.877 78.7179V3.00493H914.604V80.2041C914.604 98.4475 910.669 111.853 902.801 120.421C894.932 128.931 882.75 133.186 866.256 133.186C850.169 133.186 838.162 129.018 830.235 120.683C822.367 112.29 818.432 99.0012 818.432 80.8161ZM1023.92 131L980.122 3.00493H993.674L1019.29 78.8927C1019.93 80.7579 1021.56 85.7121 1024.19 93.7555C1026.87 101.741 1028.91 107.861 1030.31 112.115C1031.71 107.919 1033.72 102.003 1036.34 94.3675C1038.96 86.7321 1040.74 81.5739 1041.67 78.8927L1066.85 3.00493H1079.79L1035.99 131H1023.92ZM1233.17 131H1147.5V3.00493H1232.21V12.7969H1160.26V57.7351H1222.86V67.7893H1160.26V121.121H1233.17V131Z" fill="#333333"/>
</svg>
