<svg width="70" height="70" viewBox="0 0 70 70" fill="none" xmlns="http://www.w3.org/2000/svg">
<path d="M46.3458 23.485C41.8454 19.1916 34.2679 23.3362 19.3112 38.2491L19.3025 38.2579C4.28166 53.4887 0.300407 60.8504 4.67249 65.4675C10.0421 70.837 20.3437 62.0345 31.7187 50.6975C46.3487 35.8691 50.5983 28.0029 46.3458 23.485ZM29.6421 48.6354C13.0025 65.2166 8.63332 65.2137 6.74332 63.4054C4.88832 61.4454 4.87957 57.05 21.3792 40.317C23.0621 38.64 24.6196 37.132 26.0633 35.7816C30.4237 36.0062 33.9325 39.5383 34.1512 43.9279C32.7804 45.4125 31.2783 46.9787 29.6421 48.6383V48.6354ZM36.6392 41.1687C35.5483 37.377 32.5646 34.3816 28.7875 33.2908C39.5704 23.6979 42.8196 24.1675 44.2692 25.547C46.3721 27.7812 43.8725 32.9204 36.6392 41.1687Z" fill="white"/>
<path d="M48.9388 14.8721L51.4675 16.2634C52.3542 16.7505 53.0775 17.4796 53.5617 18.3692L54.9442 20.9155C55.2475 21.6038 56.6767 22.263 57.5138 20.9155L58.8992 18.3692C59.3834 17.4767 60.1067 16.7505 60.9934 16.2634L63.525 14.8721C64.3009 14.5134 64.7209 13.0434 63.525 12.3113L60.9934 10.9201C60.1096 10.433 59.3863 9.70672 58.8992 8.81422L57.5138 6.26797C57.0034 5.3288 55.4575 5.32589 54.9442 6.26797L53.5617 8.81422C53.0775 9.70672 52.3513 10.433 51.4675 10.9201L48.9359 12.3113C48.1075 12.6905 47.7517 14.2421 48.9388 14.8721Z" fill="white"/>
<path d="M66.2405 43.1696L62.9621 41.3671C61.743 40.6963 60.7455 39.693 60.0775 38.468L58.2838 35.1721C57.7734 34.2301 56.2275 34.2301 55.7171 35.1721L53.9234 38.468C53.2584 39.693 52.2609 40.6963 51.0417 41.3671L47.7634 43.1696C46.8096 43.6305 46.7455 45.2376 47.7634 45.7305L51.0446 47.533C52.2638 48.2038 53.2584 49.2042 53.9263 50.4321L55.72 53.728C56.0175 54.4105 57.5575 54.9938 58.2867 53.728L60.0805 50.4321C60.7455 49.2071 61.74 48.2038 62.9621 47.533L66.2405 45.7305C67.0163 45.3951 67.4625 43.9046 66.2405 43.1696Z" fill="white"/>
<path d="M34.6908 11.6201L31.4124 9.81758C30.1933 9.14675 29.1958 8.14341 28.5279 6.91841L26.7341 3.62258C26.2237 2.68049 24.6779 2.68049 24.1674 3.62258L22.3737 6.91841C21.7087 8.14341 20.7112 9.14675 19.492 9.81758L16.2137 11.6201C15.2599 12.0809 15.1958 13.688 16.2137 14.1809L19.4949 15.9834C20.7141 16.6542 21.7087 17.6547 22.3766 18.8826L24.1704 22.1784C24.4679 22.8609 26.0079 23.4442 26.737 22.1784L28.5308 18.8826C29.1958 17.6576 30.1904 16.6542 31.4124 15.9834L34.6908 14.1809C35.4666 13.8455 35.9129 12.3551 34.6908 11.6201Z" fill="white"/>
</svg>
