<svg width="70" height="70" viewBox="0 0 70 70" fill="none" xmlns="http://www.w3.org/2000/svg">
<g clip-path="url(#clip0_71_137)">
<path d="M68.9325 18.3751L64.6566 11.273C63.77 9.78839 62.5596 7.75839 60.7775 7.19547L40.7079 0.845889C36.9658 -0.338278 33.0108 -0.338278 29.2687 0.845889L9.19915 7.19839C7.50748 7.73506 6.06957 8.86672 5.10415 10.4767L1.11123 18.2642C-0.09335 20.2621 -0.32085 22.6626 0.487067 24.8501C1.29207 27.0376 3.02457 28.7176 5.23832 29.4526L5.85082 29.6567L5.83332 51.8351C5.8304 57.4963 9.4354 62.5071 14.8079 64.2951L28.9887 69.023C30.9225 69.6676 32.9525 69.9913 34.9854 69.9913C37.0183 69.9913 39.0483 69.6705 40.9821 69.023L55.1746 64.2921C60.5471 62.5013 64.1637 57.5021 64.1666 51.8496V29.6421L64.8608 29.4117C67.0454 28.6826 68.7516 27.0288 69.5479 24.8705C70.3441 22.7121 70.1196 20.3438 68.9325 18.3721V18.3751ZM3.2229 23.8409C2.72415 22.4876 2.86415 21.003 3.65748 19.6817L7.6504 11.8913C7.8429 11.5705 8.07623 11.2788 8.34165 11.0221L32.865 19.2238L27.1075 29.8376C25.9787 31.7188 23.7358 32.5471 21.6592 31.853L6.1629 26.6876C4.79498 26.2296 3.72165 25.1942 3.2229 23.8409ZM33.5066 67.0076C32.2875 66.8967 31.0771 66.6459 29.9104 66.258L15.7296 61.5301C11.55 60.1359 8.74415 56.2421 8.74707 51.838L8.76165 30.628L20.7287 34.618C24.1237 35.7496 27.7666 34.3992 29.6333 31.2813L33.5212 24.1151L33.5008 67.0046L33.5066 67.0076ZM12.3054 9.27214L30.1496 3.62547C33.3142 2.62506 36.6625 2.62506 39.83 3.62547L57.7237 9.28964L35.0146 16.8671L12.3054 9.27214ZM61.25 51.8496C61.2471 56.2451 58.4354 60.133 54.2529 61.5271L40.0604 66.258C38.8821 66.6517 37.66 66.9026 36.4262 67.0105L36.4467 24.1005L40.3725 31.3367C41.7725 33.673 44.2312 35.0117 46.8242 35.0117C47.6262 35.0117 48.4429 34.8834 49.245 34.6151L61.2529 30.6134V51.8467L61.25 51.8496ZM66.8121 23.8613C66.325 25.1855 65.2779 26.2005 63.9392 26.6467L48.3204 31.853C46.2379 32.5384 44.0008 31.7188 42.9042 29.893L37.1233 19.2355L61.1596 11.2146C61.5533 11.763 61.915 12.3696 62.1541 12.7692L66.4358 19.8801C67.165 21.0905 67.3021 22.5401 66.8121 23.8642V23.8613Z" fill="white"/>
</g>
<defs>
<clipPath id="clip0_71_137">
<rect width="70" height="70" fill="white"/>
</clipPath>
</defs>
</svg>
