<svg width="97" height="64" viewBox="0 0 97 64" fill="none" xmlns="http://www.w3.org/2000/svg">
<circle cx="48.25" cy="32.25" r="29" transform="rotate(90 48.25 32.25)" fill="#A989AE" stroke="white" stroke-width="5"/>
<path d="M53.9917 19.0078H42.0084C38.1417 19.0078 35.0078 22.1422 35.0078 26.0089V37.9911C35.0078 41.8578 38.1423 44.9922 42.0089 44.9922H53.9911C57.8578 44.9922 60.9923 41.8578 60.9923 37.9911V26.0089C60.9923 22.1422 57.8584 19.0078 53.9917 19.0078Z" stroke="white" stroke-width="2" stroke-miterlimit="10"/>
<path d="M48 38.2722C51.4641 38.2722 54.2722 35.4641 54.2722 32C54.2722 28.5359 51.4641 25.7278 48 25.7278C44.536 25.7278 41.7278 28.5359 41.7278 32C41.7278 35.4641 44.536 38.2722 48 38.2722Z" stroke="white" stroke-width="2" stroke-miterlimit="10"/>
<path d="M55.6161 25.7278C56.3583 25.7278 56.96 25.1261 56.96 24.3839C56.96 23.6417 56.3583 23.04 55.6161 23.04C54.8739 23.04 54.2722 23.6417 54.2722 24.3839C54.2722 25.1261 54.8739 25.7278 55.6161 25.7278Z" fill="white"/>
<path d="M14.5 32.1136C11.2484 36.6821 0.25 36.75 0.25 36.75H19.25L19.75 19.75C19.75 19.75 17.25 28.25 14.5 32.1136Z" fill="white"/>
<path d="M82.5 32.1136C85.7516 36.6821 96.75 36.75 96.75 36.75H77.75L77.25 19.75C77.25 19.75 79.75 28.25 82.5 32.1136Z" fill="white"/>
</svg>
