<svg width="70" height="70" viewBox="0 0 70 70" fill="none" xmlns="http://www.w3.org/2000/svg">
<g clip-path="url(#clip0_71_141)">
<path d="M68.3375 14.35C66.9375 12.6583 64.8958 11.6667 62.7083 11.6667H18.9292L18.1708 6.3C17.675 2.7125 14.5833 0 10.9375 0H7.2625C6.44583 0 5.80417 0.641667 5.80417 1.45833C5.80417 2.275 6.44583 2.91667 7.2625 2.91667H10.9375C13.125 2.91667 14.9625 4.55 15.2833 6.67917L20.475 44.1C21.3792 50.5458 26.95 55.4167 33.4833 55.4167H56.875C57.6917 55.4167 58.3333 54.775 58.3333 53.9583C58.3333 53.1417 57.6917 52.5 56.875 52.5H33.4833C28.4375 52.5 24.0917 48.7375 23.3917 43.75H54.425C60.6667 43.75 66.0625 39.3167 67.2875 33.1917L69.8542 20.3875C70.2917 18.2292 69.7375 16.0417 68.3375 14.3208V14.35ZM66.9958 19.8333L64.4292 32.6375C63.4667 37.3917 59.2667 40.8333 54.425 40.8333H22.9833L19.3375 14.5833H62.7083C64.0208 14.5833 65.2458 15.1667 66.0917 16.1875C66.9375 17.2083 67.2583 18.5208 66.9958 19.8333ZM26.25 58.3625C23.0417 58.3625 20.4167 60.9875 20.4167 64.1958C20.4167 67.4042 23.0417 70.0292 26.25 70.0292C29.4583 70.0292 32.0833 67.4042 32.0833 64.1958C32.0833 60.9875 29.4583 58.3625 26.25 58.3625ZM26.25 67.1125C24.6458 67.1125 23.3333 65.8 23.3333 64.1958C23.3333 62.5917 24.6458 61.2792 26.25 61.2792C27.8542 61.2792 29.1667 62.5917 29.1667 64.1958C29.1667 65.8 27.8542 67.1125 26.25 67.1125ZM52.5 58.3625C49.2917 58.3625 46.6667 60.9875 46.6667 64.1958C46.6667 67.4042 49.2917 70.0292 52.5 70.0292C55.7083 70.0292 58.3333 67.4042 58.3333 64.1958C58.3333 60.9875 55.7083 58.3625 52.5 58.3625ZM52.5 67.1125C50.8958 67.1125 49.5833 65.8 49.5833 64.1958C49.5833 62.5917 50.8958 61.2792 52.5 61.2792C54.1042 61.2792 55.4167 62.5917 55.4167 64.1958C55.4167 65.8 54.1042 67.1125 52.5 67.1125ZM0 16.0417C0 15.225 0.641667 14.5833 1.45833 14.5833H8.86667C9.68333 14.5833 10.325 15.225 10.325 16.0417C10.325 16.8583 9.68333 17.5 8.86667 17.5H1.45833C0.641667 17.5 0 16.8583 0 16.0417ZM0 27.7083C0 26.8917 0.641667 26.25 1.45833 26.25H10.2083C11.025 26.25 11.6667 26.8917 11.6667 27.7083C11.6667 28.525 11.025 29.1667 10.2083 29.1667H1.45833C0.641667 29.1667 0 28.525 0 27.7083ZM14.5833 39.375C14.5833 40.1917 13.9417 40.8333 13.125 40.8333H1.45833C0.641667 40.8333 0 40.1917 0 39.375C0 38.5583 0.641667 37.9167 1.45833 37.9167H13.125C13.9417 37.9167 14.5833 38.5583 14.5833 39.375Z" fill="white"/>
</g>
<defs>
<clipPath id="clip0_71_141">
<rect width="70" height="70" fill="white"/>
</clipPath>
</defs>
</svg>
