<svg width="70" height="70" viewBox="0 0 70 70" fill="none" xmlns="http://www.w3.org/2000/svg">
<g clip-path="url(#clip0_71_135)">
<path d="M67.6637 28.1721L63.8429 23.45C60.7833 19.6671 56.2391 17.5 51.3741 17.5H43.3037C43.3037 17.5 43.2979 17.5 43.295 17.5H18.5908C13.752 17.5 9.21954 19.6496 6.15704 23.4004C6.15704 23.4004 2.43246 27.9679 2.42371 27.9825C-1.30963 32.8825 -0.627126 39.9233 3.93454 43.9746L28.2508 67.4333C30.17 69.1396 32.5733 69.9942 34.9825 69.9942C37.415 69.9942 39.8504 69.1221 41.8016 67.3808L66.045 44.0679C70.6183 39.9846 71.3329 33.1742 67.6666 28.1721H67.6637ZM61.5766 25.2846L65.3537 29.9542C65.8466 30.625 66.2316 31.3425 66.5116 32.0833H49.4433C49.2479 30.5171 48.8512 28.9713 48.2533 27.4779L45.427 20.4167H51.3741C55.3525 20.4167 59.0741 22.19 61.5766 25.2846ZM34.9708 63.7788L24.3454 41.1075C23.6016 39.1358 23.2662 37.0621 23.3391 35H46.6637C46.5995 36.6508 46.2758 38.2871 45.6895 39.8417L34.9708 63.7788ZM23.7241 32.0833C23.905 31.2929 24.147 30.5113 24.4533 29.7471C24.4533 29.7471 28.14 20.5071 28.1575 20.4167H42.2887L45.5466 28.56C46.0045 29.7063 46.3225 30.8875 46.5004 32.0833H23.7241ZM8.42037 25.2467C10.9229 22.1754 14.6329 20.4167 18.5908 20.4167H25.0483L21.7466 28.665C21.3004 29.7792 20.9679 30.9225 20.7433 32.0833H3.47079C3.76829 31.2696 4.18537 30.4908 4.72787 29.7704L8.42037 25.2467ZM5.91496 41.8367C3.90829 40.0546 2.89329 37.5258 2.93412 34.9971H20.4254C20.3554 37.4238 20.7637 39.8767 21.6591 42.2363L33.1945 66.8617C32.1212 66.5875 31.1004 66.0654 30.2283 65.2925L5.91204 41.8396L5.91496 41.8367ZM64.0645 41.9271L39.8212 65.24C38.9258 66.0392 37.8816 66.5758 36.7879 66.8558L48.3875 40.9471C49.1166 39.0192 49.5133 37.0096 49.5804 34.9942H67.0862C67.0862 34.9942 67.0891 34.9942 67.092 34.9942C67.1562 37.5375 66.1266 40.0838 64.0645 41.9242V41.9271ZM33.5416 10.2083V1.45833C33.5416 0.653333 34.195 0 35 0C35.805 0 36.4583 0.653333 36.4583 1.45833V10.2083C36.4583 11.0133 35.805 11.6667 35 11.6667C34.195 11.6667 33.5416 11.0133 33.5416 10.2083ZM46.8737 9.45875L51.2487 2.16708C51.6687 1.47875 52.57 1.25417 53.2495 1.66542C53.9408 2.07958 54.1654 2.975 53.7512 3.66625L49.3762 10.9579C49.102 11.4129 48.6179 11.6667 48.125 11.6667C47.8683 11.6667 47.6087 11.6025 47.3754 11.4596C46.6841 11.0454 46.4595 10.15 46.8737 9.45875ZM16.2487 3.66625C15.8316 2.97792 16.0591 2.07958 16.7504 1.66542C17.4358 1.25125 18.3341 1.47875 18.7512 2.16708L23.1262 9.45875C23.5433 10.1471 23.3158 11.0454 22.6245 11.4596C22.3912 11.6025 22.1316 11.6667 21.875 11.6667C21.382 11.6667 20.8979 11.4129 20.6237 10.9579L16.2487 3.66625Z" fill="white"/>
</g>
<defs>
<clipPath id="clip0_71_135">
<rect width="70" height="70" fill="white"/>
</clipPath>
</defs>
</svg>
