<svg width="124" height="160" viewBox="0 0 124 160" fill="none" xmlns="http://www.w3.org/2000/svg">
<path d="M58.2277 34.841C62.9962 35.9868 66.5046 40.0053 69.4047 43.977C72.039 47.5848 73.2546 51.8995 73.9165 56.3268C74.5507 60.569 74.7068 64.9241 73.1329 68.9142C71.5654 72.8884 68.6784 76.2056 65.1398 78.5783C61.6919 80.8901 57.5743 81.4976 53.4743 82.0957C49.016 82.7461 44.1067 84.5212 40.2355 82.2111C36.3691 79.904 35.8085 74.6344 34.0202 70.4871C32.3794 66.6819 29.9258 63.0602 30.192 58.9194C30.4604 54.7436 33.1706 51.3073 35.4772 47.8216C37.9474 44.0885 40.224 40.1101 44.1029 37.897C48.379 35.4572 53.4492 33.6927 58.2277 34.841Z" fill="#FFA07D"/>
<path opacity="0.945665" d="M61.0744 76.0077C65.2582 76.5395 69.5931 77.5105 72.2833 80.7829C75.0281 84.1217 75.5475 88.6804 75.031 92.9848C74.5148 97.2858 72.8385 101.463 69.4774 104.164C66.0938 106.884 61.6592 107.639 57.3543 107.191C52.9671 106.734 48.5812 105.192 45.8504 101.702C43.1153 98.2065 42.6529 93.5458 43.2241 89.1318C43.7887 84.7684 45.4139 80.4091 48.9415 77.8156C52.3748 75.2913 56.8578 75.4716 61.0744 76.0077Z" fill="#FCBF80"/>
<path d="M75.243 40.2443C80.0313 41.2497 81.6899 47.3224 85.4189 50.4973C88.811 53.3854 94.2552 54.0225 96.1611 58.0544C98.0678 62.088 96.6151 66.9507 95.1967 71.1818C93.9438 74.9195 91.2408 77.8316 88.5633 80.7198C86.1367 83.3374 83.1567 85.0949 80.3079 87.2426C76.604 90.0351 73.8636 95.6517 69.2439 95.285C64.6689 94.9219 63.1223 88.7359 59.7533 85.6112C56.8353 82.9047 52.7616 81.536 50.7278 78.1114C48.5878 74.5079 47.9436 70.2135 48.1206 66.0233C48.3048 61.6608 49.3071 57.2832 51.7597 53.6752C54.2521 50.0087 58.171 47.782 62.0149 45.5835C66.2153 43.1812 70.5101 39.2506 75.243 40.2443Z" fill="#A989AE"/>
<path fill-rule="evenodd" clip-rule="evenodd" d="M62.823 42.8458C63.3277 42.8458 64.0487 43.3584 64.7337 44.2007C65.3465 44.9697 66.1757 46.3247 66.5722 47.2402C66.9688 48.1557 67.5095 49.5473 67.7619 50.3529C68.0142 51.1586 69.5283 54.7108 71.1866 58.2263C72.8089 61.7419 74.7195 65.88 75.4405 67.3814C76.1255 68.8828 77.3512 71.1899 79.5142 74.8886L76.8104 79.4661C75.3324 81.9929 72.7368 87.0099 71.0064 90.6353C69.276 94.2607 67.4374 98.289 66.9327 99.6073C66.428 100.926 65.707 102.574 65.3465 103.269C65.0221 103.965 64.6616 104.881 64.5895 105.283C64.5534 105.686 64.265 106.345 64.0126 106.748C63.7603 107.151 63.3277 108.213 63.0753 109.129C62.7869 110.044 62.4985 110.923 62.3543 111.143C62.2101 111.362 61.8136 112.498 61.4531 113.706C61.0926 114.915 60.5518 116.196 60.2274 116.563C59.9029 116.929 59.5424 117.222 59.3982 117.185C59.218 117.185 58.9296 116.819 58.7133 116.343C58.4609 115.903 58.2086 115.134 58.1365 114.622C58.0283 114.109 56.0456 109.275 53.6663 103.819C51.287 98.3622 48.0424 90.5255 46.4562 86.3141C44.9061 82.1394 43.6083 78.6238 43.6083 78.4408C43.6083 78.2943 43.392 77.6351 43.0675 76.9759C42.5628 75.9139 42.5989 75.6942 43.1036 74.5956C43.428 73.9731 45.1224 71.2998 46.8528 68.6631C48.5832 66.0264 51.1788 61.9982 52.5848 59.6911C54.0268 57.384 55.3246 55.2234 55.5048 54.9305C55.6851 54.6375 56.8026 52.66 57.9562 50.536C59.1459 48.4121 60.5158 45.812 61.0565 44.75C61.7775 43.3218 62.2101 42.8458 62.823 42.8458ZM60.8763 49.2543C60.1553 50.6459 59.254 52.3671 58.8935 52.9896C58.497 53.6488 58.1004 54.1981 57.9562 54.1981C57.776 54.1981 57.2352 55.1868 56.6945 56.3953C56.1177 57.6404 55.5769 58.6291 55.4327 58.5925C55.2525 58.5925 55.1443 58.739 55.1443 58.9587C55.1443 59.1784 54.7478 59.9475 54.2431 60.6799C53.7384 61.4489 53.2337 62.2546 53.0895 62.4377C52.9092 62.6574 52.5487 63.2433 52.2603 63.756C51.9719 64.2687 51.3951 65.2208 50.9986 65.88C50.602 66.5391 49.0158 69.0293 47.5017 71.4463L44.6898 75.8041C45.7713 79.6492 46.276 81.407 46.4923 82.2126C46.7446 83.0183 47.2493 84.8493 47.6459 86.2409C48.0424 87.6325 48.475 89.1339 48.6192 89.5367C48.7995 89.9395 49.5205 91.4776 50.2415 92.9058C50.9625 94.3706 51.5393 95.9087 51.5393 96.3115C51.5393 96.7143 51.7196 97.0439 51.8998 97.0439C52.1161 97.0439 52.3685 97.4101 52.4766 97.8495C52.6208 98.3256 53.0174 99.3876 53.3779 100.23C53.7744 101.109 54.2431 101.878 54.4233 101.988C54.6396 102.097 54.7117 102.281 54.6036 102.427C54.5315 102.61 54.7478 103.05 55.0722 103.452C55.4327 103.855 56.2979 105.43 57.0189 106.931C57.7399 108.433 58.533 110.41 58.7854 111.326L59.218 112.974C60.0111 110.996 60.66 109.165 61.1647 107.664C61.6333 106.162 62.2822 104.514 62.5346 104.002C62.823 103.489 64.1929 100.706 65.5989 97.7763C67.0048 94.8467 68.3026 92.21 68.4829 91.917C68.6631 91.6241 69.312 90.3057 69.9249 88.9874C70.5017 87.6691 71.1506 86.3507 71.2948 86.0578C71.475 85.7648 71.8716 84.9592 72.196 84.3C72.5205 83.6775 72.8089 82.8718 72.8089 82.5788C72.8089 82.2859 72.917 81.9929 73.0973 81.9197C73.2415 81.8831 74.1067 80.2718 75.08 78.3675C76.0173 76.4632 76.7744 74.5224 76.7744 74.0463C76.7744 73.6069 76.3057 72.5815 75.6929 71.7758C75.08 70.9702 74.6114 70.1646 74.6114 69.9448C74.6114 69.7251 74.359 69.4688 74.0346 69.2857C73.7101 69.1392 72.7368 67.4913 71.8716 65.6236C71.0064 63.7926 70.2854 61.9982 70.2854 61.7052C70.2854 61.4123 70.1412 61.1559 69.9249 61.1559C69.7446 61.1559 69.4923 60.7897 69.4202 60.3137C69.3481 59.8742 68.9515 58.6658 68.555 57.677C68.1584 56.6516 67.5456 55.1868 67.1851 54.3812C66.8246 53.5755 66.5362 52.8431 66.5001 52.7333C66.4641 52.6234 66.3199 52.2206 66.1396 51.8177C65.9594 51.4149 65.5628 50.6825 65.2384 50.1698C64.8779 49.6571 64.4813 48.8515 64.3371 48.3388C64.1929 47.8261 63.7603 47.0571 63.4358 46.581C62.9672 45.9585 62.7148 45.8486 62.4985 46.2148C62.3543 46.4712 61.5973 47.8627 60.8763 49.2543ZM67.3653 6.48174C68.0863 6.77471 68.8434 7.10429 69.0236 7.17753C69.2399 7.25077 69.8167 8.05642 70.3935 8.97193C70.9703 9.92406 71.5832 11.7917 71.9076 13.4396C72.196 15.0143 72.4844 17.5411 72.5926 19.0425C72.6647 20.544 72.5565 22.7046 72.4123 23.8032C72.2321 24.9018 72.0518 26.4765 71.9797 27.2821C71.9076 28.0878 71.2587 29.992 70.5377 31.4934C69.8528 32.9949 68.8434 34.6062 68.3387 35.0456C67.834 35.5217 67.0048 36.0344 66.5001 36.2541C65.9954 36.4372 65.2023 36.6203 64.6976 36.6203C64.1929 36.6203 63.2195 36.3273 62.5346 35.9611C61.8136 35.6315 61.2728 35.2287 61.2728 35.0456C61.2728 34.8991 60.8763 34.1667 60.3716 33.3977C59.9029 32.6653 59.254 31.2005 58.9296 30.2117C58.6051 29.1864 58.2807 28.0511 58.2086 27.6483C58.1365 27.2455 57.9202 25.3412 57.7039 23.437C57.5236 21.5327 57.4155 18.5665 57.4515 16.8453C57.5236 14.8678 57.7039 13.696 57.9562 13.6227C58.2086 13.5861 58.3888 13.3664 58.3888 13.1833C58.3888 12.9635 58.6412 12.5607 58.9296 12.2678C59.218 11.9748 59.4703 11.4255 59.4703 11.0593C59.4703 10.7297 60.3355 9.59447 61.417 8.60572C62.4985 7.58035 64.0126 6.5916 64.7337 6.37188C65.8152 6.0423 66.3559 6.07892 67.3653 6.48174ZM63.1835 10.2536C62.9311 10.2536 62.7148 10.51 62.7148 10.8029C62.7148 11.0959 62.5706 11.3523 62.3543 11.3523C62.1741 11.3523 61.9938 11.572 61.9938 11.7917C62.0299 12.048 61.7775 12.5241 61.4531 12.8171C61.1286 13.11 60.8763 13.5861 60.9123 13.8058C60.9123 14.0622 60.5879 15.0143 60.1913 15.9298C59.5785 17.3214 59.5064 18.1636 59.6145 21.1299C59.6866 23.1074 59.939 25.4511 60.1553 26.3666C60.4076 27.2821 60.9484 28.93 61.3449 30.0286C61.7775 31.1272 62.4264 32.4456 62.823 32.9583C63.1835 33.4709 63.8324 33.9836 64.265 34.0935C64.6976 34.2034 65.4907 34.0569 66.0675 33.7273C66.6083 33.3977 67.0409 33.0681 67.0409 32.9583C67.0409 32.8484 67.3293 32.4456 67.6898 32.0428C68.0503 31.6399 68.7352 29.9188 69.1678 28.1976C69.7807 25.9272 70.033 24.0961 70.033 21.4228C70.033 19.4087 69.9609 16.7721 69.8528 15.5636C69.7446 14.3551 69.4923 13.0002 69.276 12.5241C69.0236 12.0847 68.8434 11.4255 68.8434 11.0593C68.8794 10.7297 68.591 10.1438 68.2305 9.8142C67.87 9.44799 67.0048 9.08179 66.3199 8.93531C65.3105 8.75221 64.9139 8.89869 64.3371 9.48461C63.9405 9.92406 63.3998 10.2903 63.1835 10.2536Z" fill="#1D1D1D"/>
<path d="M11.3797 125.202H8.575V134.858H10.9422C11.7495 134.858 12.424 134.772 12.9656 134.6C13.5073 134.423 13.9448 134.134 14.2781 133.733C14.6167 133.332 14.8563 132.832 14.9969 132.233C15.1427 131.634 15.2156 130.887 15.2156 129.991C15.2156 129.189 15.1557 128.506 15.0359 127.944C14.9161 127.376 14.713 126.881 14.4266 126.459C14.1401 126.032 13.7443 125.717 13.2391 125.514C12.7391 125.306 12.1193 125.202 11.3797 125.202ZM7.43438 124.311H11.3719C12.2 124.311 12.9135 124.41 13.5125 124.608C14.1115 124.801 14.6245 125.118 15.0516 125.561C15.4839 125.999 15.8042 126.584 16.0125 127.319C16.226 128.048 16.3328 128.936 16.3328 129.983C16.3328 131.368 16.1505 132.486 15.7859 133.334C15.4214 134.183 14.8745 134.798 14.1453 135.178C13.4214 135.558 12.4786 135.749 11.3172 135.749H7.43438V124.311ZM27.6641 124.1C28.4245 124.1 29.0911 124.209 29.6641 124.428C30.2422 124.647 30.7422 124.986 31.1641 125.444C31.5859 125.902 31.9036 126.512 32.1172 127.272C32.3359 128.027 32.4453 128.923 32.4453 129.959C32.4453 132.043 32.0417 133.561 31.2344 134.514C30.4271 135.467 29.2344 135.944 27.6562 135.944C26.8906 135.944 26.2214 135.834 25.6484 135.616C25.0755 135.397 24.5807 135.053 24.1641 134.584C23.7474 134.116 23.4323 133.496 23.2188 132.725C23.0104 131.954 22.9062 131.035 22.9062 129.967C22.9062 128.926 23.013 128.027 23.2266 127.272C23.4453 126.512 23.763 125.902 24.1797 125.444C24.5964 124.98 25.0911 124.642 25.6641 124.428C26.2422 124.209 26.9089 124.1 27.6641 124.1ZM27.6562 125.014C27.1146 125.014 26.638 125.09 26.2266 125.241C25.8203 125.392 25.4818 125.605 25.2109 125.881C24.9453 126.152 24.7292 126.496 24.5625 126.913C24.3958 127.329 24.276 127.785 24.2031 128.28C24.1354 128.769 24.1016 129.329 24.1016 129.959C24.1016 131.715 24.3724 132.999 24.9141 133.811C25.4557 134.618 26.3724 135.022 27.6641 135.022C28.9609 135.022 29.8802 134.621 30.4219 133.819C30.9635 133.017 31.2344 131.733 31.2344 129.967C31.2344 129.337 31.1979 128.775 31.125 128.28C31.0573 127.785 30.9375 127.329 30.7656 126.913C30.599 126.496 30.3802 126.152 30.1094 125.881C29.8385 125.605 29.4974 125.392 29.0859 125.241C28.6797 125.09 28.2031 125.014 27.6562 125.014ZM40.4328 125.147V129.209H42.2141C42.5266 129.209 42.787 129.209 42.9953 129.209C43.2089 129.204 43.438 129.196 43.6828 129.186C43.9328 129.17 44.1359 129.152 44.2922 129.131C44.4536 129.111 44.6255 129.082 44.8078 129.045C44.9901 129.009 45.1359 128.965 45.2453 128.913C45.3599 128.861 45.4745 128.798 45.5891 128.725C45.7036 128.647 45.7948 128.558 45.8625 128.459C45.9302 128.361 45.9901 128.246 46.0422 128.116C46.0995 127.986 46.1385 127.842 46.1594 127.686C46.1854 127.525 46.1984 127.347 46.1984 127.155C46.1984 126.941 46.1776 126.749 46.1359 126.577C46.0995 126.4 46.0474 126.249 45.9797 126.124C45.9172 125.993 45.8286 125.879 45.7141 125.78C45.6047 125.676 45.4927 125.59 45.3781 125.522C45.2688 125.454 45.1281 125.397 44.9563 125.35C44.7896 125.298 44.6333 125.262 44.4875 125.241C44.3469 125.215 44.1672 125.194 43.9484 125.178C43.7349 125.163 43.5474 125.155 43.3859 125.155C43.2297 125.15 43.0292 125.147 42.7844 125.147H40.4328ZM40.4406 130.045V134.913H42.8938C43.1906 134.913 43.4406 134.91 43.6438 134.905C43.8469 134.894 44.0839 134.874 44.3547 134.842C44.6307 134.806 44.8599 134.756 45.0422 134.694C45.2245 134.626 45.4146 134.535 45.6125 134.42C45.8104 134.301 45.9693 134.157 46.0891 133.991C46.2089 133.824 46.3052 133.616 46.3781 133.366C46.4563 133.111 46.4953 132.824 46.4953 132.506C46.4953 132.246 46.4719 132.012 46.425 131.803C46.3833 131.59 46.3286 131.402 46.2609 131.241C46.1932 131.079 46.0969 130.939 45.9719 130.819C45.8469 130.694 45.7245 130.59 45.6047 130.506C45.4849 130.423 45.3313 130.353 45.1438 130.295C44.9563 130.233 44.7818 130.186 44.6203 130.155C44.4641 130.124 44.2688 130.1 44.0344 130.084C43.8 130.069 43.5917 130.058 43.4094 130.053C43.2323 130.048 43.0109 130.045 42.7453 130.045H40.4406ZM39.3 135.749V124.311H42.7297C43.0943 124.311 43.425 124.321 43.7219 124.342C44.024 124.358 44.3365 124.392 44.6594 124.444C44.9823 124.496 45.2661 124.566 45.5109 124.655C45.7609 124.743 46.0005 124.861 46.2297 125.006C46.4589 125.152 46.6464 125.324 46.7922 125.522C46.9432 125.72 47.063 125.962 47.1516 126.249C47.2401 126.53 47.2844 126.845 47.2844 127.194C47.2844 128.538 46.5786 129.332 45.1672 129.577C45.9849 129.738 46.5995 130.077 47.0109 130.592C47.4224 131.108 47.6281 131.751 47.6281 132.522C47.6281 133.163 47.5292 133.691 47.3313 134.108C47.1333 134.525 46.813 134.855 46.3703 135.1C45.9276 135.34 45.3964 135.509 44.7766 135.608C44.1568 135.702 43.3807 135.749 42.4484 135.749H39.3ZM61.2016 135.749H54.225V124.311H55.3656V134.866H61.2016V135.749ZM74.65 135.749H66.9938V124.311H74.5641V125.186H68.1344V129.202H73.7281V130.1H68.1344V134.866H74.65V135.749ZM80.5359 131.264V124.311H81.7859V131.077C81.7859 131.566 81.8094 131.996 81.8562 132.366C81.9031 132.736 81.9943 133.092 82.1297 133.436C82.2651 133.775 82.4448 134.053 82.6687 134.272C82.8927 134.491 83.187 134.665 83.5516 134.795C83.9214 134.92 84.3562 134.983 84.8562 134.983C85.3562 134.983 85.7885 134.92 86.1531 134.795C86.5177 134.665 86.8094 134.491 87.0281 134.272C87.2521 134.053 87.4292 133.775 87.5594 133.436C87.6948 133.092 87.7859 132.736 87.8328 132.366C87.8797 131.996 87.9031 131.566 87.9031 131.077V124.311H89.1297V131.209C89.1297 132.84 88.7781 134.038 88.075 134.803C87.3719 135.564 86.2833 135.944 84.8094 135.944C83.3719 135.944 82.299 135.571 81.5906 134.827C80.8875 134.077 80.5359 132.889 80.5359 131.264ZM98.8984 135.749L94.9844 124.311H96.1953L98.4844 131.092C98.5417 131.259 98.6875 131.702 98.9219 132.42C99.1615 133.134 99.3438 133.681 99.4688 134.061C99.5938 133.686 99.7734 133.157 100.008 132.475C100.242 131.793 100.401 131.332 100.484 131.092L102.734 124.311H103.891L99.9766 135.749H98.8984ZM117.597 135.749H109.941V124.311H117.511V125.186H111.081V129.202H116.675V130.1H111.081V134.866H117.597V135.749Z" fill="#1D1D1D"/>
<path d="M35.0617 155.228L33.2907 150.921C33.2504 150.822 33.2119 150.712 33.1752 150.591C33.1422 150.712 33.1037 150.822 33.0597 150.921L31.2887 155.228H35.0617ZM36.5247 158H36.2882C36.2332 158 36.1929 157.969 36.1672 157.906L35.1607 155.459H31.1897L30.1832 157.906C30.1649 157.969 30.1227 158 30.0567 158H29.8312L33.0322 150.267H33.3237L36.5247 158ZM39.352 154.128H40.826C41.189 154.128 41.5154 154.086 41.805 154.001C42.0984 153.913 42.3459 153.789 42.5475 153.627C42.7529 153.462 42.9087 153.264 43.015 153.033C43.125 152.802 43.18 152.542 43.18 152.252C43.18 151.655 42.9857 151.215 42.597 150.932C42.2084 150.65 41.6474 150.509 40.914 150.509H39.352V154.128ZM44.181 158H43.9335C43.8932 158 43.8565 157.994 43.8235 157.983C43.7942 157.972 43.7649 157.947 43.7355 157.906L41.0075 154.568C40.9782 154.528 40.947 154.495 40.914 154.469C40.8847 154.443 40.8499 154.423 40.8095 154.408C40.7729 154.39 40.727 154.377 40.672 154.37C40.6207 154.363 40.5565 154.359 40.4795 154.359H39.352V158H39.0495V150.267H40.914C41.7537 150.267 42.3917 150.43 42.828 150.756C43.2644 151.083 43.4825 151.578 43.4825 152.241C43.4825 152.546 43.4257 152.823 43.312 153.072C43.1984 153.318 43.0389 153.532 42.8335 153.715C42.6282 153.895 42.3789 154.04 42.0855 154.15C41.7922 154.256 41.4677 154.32 41.112 154.342C41.178 154.379 41.2422 154.434 41.3045 154.507L44.181 158ZM51.2755 150.531H48.443V158H48.1405V150.531H45.2915V150.267H51.2755V150.531ZM58.3402 157.741L58.3292 158H53.7642V150.267H58.3292V150.525H54.0667V153.952H57.6582V154.205H54.0667V157.741H58.3402ZM64.9078 151.07C64.8858 151.107 64.8546 151.125 64.8143 151.125C64.774 151.125 64.7171 151.09 64.6438 151.02C64.5741 150.947 64.4751 150.866 64.3468 150.778C64.2185 150.69 64.0535 150.612 63.8518 150.542C63.6501 150.469 63.4008 150.432 63.1038 150.432C62.8031 150.432 62.5355 150.478 62.3008 150.569C62.0698 150.657 61.8755 150.778 61.7178 150.932C61.5601 151.086 61.441 151.264 61.3603 151.466C61.2796 151.664 61.2393 151.873 61.2393 152.093C61.2393 152.375 61.2961 152.612 61.4098 152.802C61.5235 152.989 61.6738 153.147 61.8608 153.275C62.0478 153.404 62.2586 153.512 62.4933 153.6C62.7316 153.688 62.9755 153.774 63.2248 153.858C63.4741 153.939 63.7161 154.027 63.9508 154.122C64.1891 154.214 64.4018 154.331 64.5888 154.474C64.7758 154.617 64.9261 154.795 65.0398 155.008C65.1535 155.217 65.2103 155.477 65.2103 155.789C65.2103 156.108 65.1553 156.409 65.0453 156.691C64.939 156.97 64.7813 157.213 64.5723 157.422C64.367 157.628 64.114 157.791 63.8133 157.912C63.5163 158.029 63.1771 158.088 62.7958 158.088C62.5355 158.088 62.299 158.064 62.0863 158.017C61.8773 157.972 61.683 157.908 61.5033 157.824C61.3273 157.736 61.1641 157.63 61.0138 157.505C60.8671 157.38 60.726 157.239 60.5903 157.081L60.6618 156.971C60.6801 156.953 60.6948 156.94 60.7058 156.933C60.7205 156.922 60.7406 156.916 60.7663 156.916C60.792 156.916 60.8268 156.94 60.8708 156.988C60.9185 157.032 60.979 157.089 61.0523 157.158C61.1256 157.224 61.2136 157.298 61.3163 157.378C61.419 157.455 61.54 157.529 61.6793 157.598C61.8223 157.664 61.9855 157.721 62.1688 157.769C62.3558 157.813 62.5666 157.835 62.8013 157.835C63.135 157.835 63.4338 157.784 63.6978 157.681C63.9618 157.575 64.1836 157.432 64.3633 157.252C64.5466 157.069 64.686 156.856 64.7813 156.614C64.8766 156.372 64.9243 156.113 64.9243 155.838C64.9243 155.545 64.8675 155.303 64.7538 155.112C64.6401 154.922 64.4898 154.762 64.3028 154.634C64.1195 154.506 63.9086 154.399 63.6703 154.315C63.432 154.227 63.1881 154.144 62.9388 154.067C62.6931 153.987 62.4511 153.901 62.2128 153.809C61.9745 153.714 61.7618 153.594 61.5748 153.451C61.3915 153.305 61.243 153.125 61.1293 152.912C61.0156 152.696 60.9588 152.427 60.9588 152.104C60.9588 151.851 61.0065 151.609 61.1018 151.378C61.1971 151.147 61.3346 150.943 61.5143 150.767C61.6976 150.588 61.9213 150.445 62.1853 150.338C62.453 150.232 62.7591 150.179 63.1038 150.179C63.4925 150.179 63.8353 150.241 64.1323 150.366C64.433 150.491 64.7135 150.685 64.9738 150.949L64.9078 151.07ZM72.2941 155.228L70.5231 150.921C70.4828 150.822 70.4443 150.712 70.4076 150.591C70.3746 150.712 70.3361 150.822 70.2921 150.921L68.5211 155.228H72.2941ZM73.7571 158H73.5206C73.4656 158 73.4253 157.969 73.3996 157.906L72.3931 155.459H68.4221L67.4156 157.906C67.3973 157.969 67.3551 158 67.2891 158H67.0636L70.2646 150.267H70.5561L73.7571 158ZM82.09 150.267V158H81.9635C81.9158 158 81.8755 157.978 81.8425 157.934L76.535 150.762C76.5386 150.795 76.5405 150.83 76.5405 150.866C76.5441 150.899 76.546 150.931 76.546 150.96V158H76.282V150.267H76.4195C76.4488 150.267 76.4726 150.272 76.491 150.283C76.5093 150.291 76.5295 150.309 76.5515 150.338L81.837 157.483C81.8333 157.45 81.8296 157.417 81.826 157.384C81.826 157.351 81.826 157.32 81.826 157.29V150.267H82.09ZM85.9452 158H85.6427V150.267H85.9452V158ZM87.4632 147.902L85.6537 149.486C85.617 149.519 85.5694 149.535 85.5107 149.535H85.3237L86.8197 148.001C86.8564 147.961 86.893 147.935 86.9297 147.924C86.9664 147.909 87.0214 147.902 87.0947 147.902H87.4632ZM93.7055 155.228L91.9345 150.921C91.8941 150.822 91.8556 150.712 91.819 150.591C91.786 150.712 91.7475 150.822 91.7035 150.921L89.9325 155.228H93.7055ZM95.1685 158H94.932C94.877 158 94.8366 157.969 94.811 157.906L93.8045 155.459H89.8335L88.827 157.906C88.8086 157.969 88.7665 158 88.7005 158H88.475L91.676 150.267H91.9675L95.1685 158Z" fill="#1D1D1D"/>
</svg>
