<svg width="42" height="73" viewBox="0 0 42 73" fill="none" xmlns="http://www.w3.org/2000/svg">
<path d="M18.478 21.5745C21.358 22.2666 23.4771 24.6937 25.2287 27.0926C26.8198 29.2716 27.554 31.8777 27.9538 34.5517C28.3369 37.1139 28.4311 39.7443 27.4805 42.1543C26.5338 44.5547 24.79 46.5582 22.6528 47.9913C20.5703 49.3876 18.0833 49.7545 15.607 50.1158C12.9142 50.5086 9.94908 51.5807 7.61091 50.1855C5.27569 48.792 4.93708 45.6092 3.85697 43.1043C2.86591 40.806 1.38399 38.6186 1.54476 36.1176C1.70688 33.5955 3.3438 31.52 4.73695 29.4146C6.22895 27.1599 7.60398 24.757 9.94675 23.4203C12.5295 21.9467 15.5918 20.881 18.478 21.5745Z" fill="#FFA07D"/>
<path opacity="0.945665" d="M20.1973 46.4388C22.7243 46.76 25.3425 47.3464 26.9673 49.3229C28.6252 51.3395 28.9389 54.0929 28.6269 56.6927C28.3152 59.2904 27.3027 61.8136 25.2726 63.4451C23.2289 65.0875 20.5505 65.5439 17.9504 65.2729C15.3006 64.9968 12.6516 64.0658 11.0022 61.9578C9.35026 59.8466 9.07094 57.0315 9.41595 54.3655C9.75699 51.7301 10.7386 49.0972 12.8692 47.5307C14.9429 46.0061 17.6505 46.115 20.1973 46.4388Z" fill="#FCBF80"/>
<path d="M28.755 24.8381C31.647 25.4453 32.6489 29.1131 34.9011 31.0308C36.9499 32.7751 40.2381 33.1599 41.3893 35.5951C42.5409 38.0314 41.6634 40.9684 40.8068 43.5239C40.05 45.7814 38.4174 47.5403 36.8003 49.2847C35.3347 50.8657 33.5348 51.9272 31.8142 53.2244C29.577 54.911 27.9219 58.3034 25.1316 58.0819C22.3684 57.8626 21.4343 54.1264 19.3994 52.2391C17.637 50.6044 15.1765 49.7777 13.9482 47.7093C12.6556 45.5328 12.2665 42.9391 12.3734 40.4083C12.4847 37.7734 13.0901 35.1293 14.5714 32.9502C16.0768 30.7357 18.4437 29.3907 20.7654 28.0629C23.3024 26.6119 25.8964 24.2379 28.755 24.8381Z" fill="#A989AE"/>
<path fill-rule="evenodd" clip-rule="evenodd" d="M21.2535 26.4093C21.5583 26.4093 21.9938 26.7189 22.4075 27.2277C22.7776 27.6921 23.2784 28.5105 23.5179 29.0635C23.7574 29.6164 24.0841 30.4569 24.2365 30.9435C24.3889 31.4301 25.3034 33.5756 26.305 35.6989C27.2848 37.8223 28.4388 40.3216 28.8743 41.2285C29.288 42.1353 30.0283 43.5288 31.3347 45.7627L29.7017 48.5275C28.809 50.0536 27.2412 53.0838 26.1961 55.2735C25.151 57.4632 24.0405 59.8962 23.7357 60.6925C23.4308 61.4888 22.9954 62.4841 22.7776 62.9043C22.5817 63.3246 22.3639 63.8775 22.3204 64.1208C22.2986 64.3641 22.1244 64.7622 21.972 65.0055C21.8196 65.2488 21.5583 65.8903 21.4059 66.4432C21.2317 66.9962 21.0575 67.527 20.9704 67.6597C20.8833 67.7924 20.6438 68.4781 20.4261 69.208C20.2083 69.9379 19.8817 70.712 19.6857 70.9332C19.4898 71.1544 19.272 71.3314 19.1849 71.3092C19.0761 71.3092 18.9019 71.0881 18.7712 70.8005C18.6188 70.5351 18.4664 70.0706 18.4229 69.761C18.3575 69.4513 17.16 66.5317 15.7229 63.2361C14.2858 59.9405 12.3262 55.2072 11.3682 52.6636C10.4319 50.1421 9.64803 48.0188 9.64803 47.9082C9.64803 47.8197 9.51739 47.4216 9.32142 47.0234C9.01659 46.382 9.03836 46.2493 9.3432 45.5858C9.53916 45.2098 10.5625 43.5951 11.6077 42.0026C12.6528 40.4101 14.2205 37.9771 15.0697 36.5837C15.9407 35.1902 16.7245 33.8852 16.8334 33.7083C16.9422 33.5313 17.6172 32.337 18.314 31.0541C19.0325 29.7712 19.8599 28.2009 20.1865 27.5594C20.622 26.6968 20.8833 26.4093 21.2535 26.4093ZM20.0777 30.28C19.6422 31.1205 19.0979 32.16 18.8801 32.536C18.6406 32.9341 18.4011 33.2659 18.314 33.2659C18.2051 33.2659 17.8785 33.8631 17.5519 34.593C17.2035 35.345 16.8769 35.9422 16.7898 35.9201C16.681 35.9201 16.6156 36.0086 16.6156 36.1413C16.6156 36.274 16.3761 36.7385 16.0713 37.1808C15.7665 37.6453 15.4616 38.1319 15.3745 38.2425C15.2657 38.3752 15.0479 38.7291 14.8737 39.0388C14.6995 39.3484 14.3512 39.9235 14.1117 40.3216C13.8721 40.7198 12.9141 42.2238 11.9996 43.6836L10.3012 46.3157C10.9545 48.6381 11.2593 49.6998 11.3899 50.1864C11.5423 50.673 11.8472 51.7789 12.0867 52.6194C12.3262 53.4598 12.5875 54.3667 12.6746 54.61C12.7835 54.8533 13.2189 55.7823 13.6544 56.6449C14.0899 57.5296 14.4383 58.4586 14.4383 58.7019C14.4383 58.9452 14.5471 59.1442 14.656 59.1442C14.7866 59.1442 14.9391 59.3654 15.0044 59.6308C15.0915 59.9184 15.331 60.5598 15.5487 61.0685C15.7882 61.5993 16.0713 62.0638 16.1802 62.1302C16.3108 62.1965 16.3544 62.3071 16.289 62.3956C16.2455 62.5062 16.3761 62.7716 16.5721 63.0149C16.7898 63.2582 17.3124 64.2093 17.7479 65.1161C18.1834 66.023 18.6624 67.2174 18.8148 67.7703L19.0761 68.7656C19.5551 67.5713 19.947 66.4653 20.2519 65.5585C20.5349 64.6517 20.9269 63.6563 21.0793 63.3467C21.2535 63.037 22.0809 61.356 22.93 59.5866C23.7792 57.8171 24.5631 56.2246 24.6719 56.0477C24.7808 55.8707 25.1727 55.0745 25.5429 54.2782C25.8913 53.482 26.2832 52.6857 26.3703 52.5088C26.4792 52.3318 26.7187 51.8452 26.9146 51.4471C27.1106 51.0711 27.2848 50.5845 27.2848 50.4075C27.2848 50.2306 27.3501 50.0536 27.459 50.0094C27.5461 49.9873 28.0687 49.0141 28.6565 47.8639C29.2227 46.7138 29.6799 45.5415 29.6799 45.254C29.6799 44.9886 29.3969 44.3693 29.0267 43.8827C28.6565 43.3961 28.3735 42.9095 28.3735 42.7768C28.3735 42.644 28.2211 42.4892 28.0251 42.3786C27.8291 42.2902 27.2413 41.2948 26.7187 40.1668C26.1961 39.0609 25.7606 37.9771 25.7606 37.8002C25.7606 37.6232 25.6735 37.4684 25.5429 37.4684C25.434 37.4684 25.2816 37.2472 25.2381 36.9597C25.1945 36.6942 24.955 35.9643 24.7155 35.3672C24.476 34.7478 24.1058 33.8631 23.8881 33.3765C23.6703 32.8899 23.4962 32.4475 23.4744 32.3812C23.4526 32.3148 23.3655 32.0715 23.2566 31.8282C23.1478 31.5849 22.9083 31.1426 22.7123 30.8329C22.4946 30.5233 22.2551 30.0367 22.168 29.727C22.0809 29.4174 21.8196 28.9529 21.6236 28.6653C21.3406 28.2893 21.1881 28.223 21.0575 28.4442C20.9704 28.599 20.5132 29.4395 20.0777 30.28ZM23.997 4.4459C24.4324 4.62285 24.8897 4.82191 24.9985 4.86615C25.1292 4.91038 25.4776 5.39698 25.826 5.94994C26.1743 6.52501 26.5445 7.65304 26.7405 8.64836C26.9146 9.59944 27.0888 11.1256 27.1542 12.0324C27.1977 12.9393 27.1324 14.2443 27.0453 14.9078C26.9364 15.5714 26.8275 16.5224 26.784 17.009C26.7405 17.4956 26.3485 18.6458 25.913 19.5526C25.4993 20.4595 24.8897 21.4327 24.5848 21.6981C24.28 21.9856 23.7792 22.2953 23.4744 22.428C23.1696 22.5386 22.6905 22.6492 22.3857 22.6492C22.0809 22.6492 21.493 22.4722 21.0793 22.2511C20.6438 22.052 20.3172 21.8087 20.3172 21.6981C20.3172 21.6096 20.0777 21.1673 19.7728 20.7028C19.4898 20.2604 19.0979 19.3757 18.9019 18.7785C18.7059 18.1592 18.51 17.4735 18.4664 17.2302C18.4229 16.9869 18.2922 15.8368 18.1616 14.6866C18.0527 13.5365 17.9874 11.7449 18.0092 10.7054C18.0527 9.51097 18.1616 8.80319 18.314 8.75895C18.4664 8.73683 18.5753 8.60412 18.5753 8.49353C18.5753 8.36082 18.7277 8.11752 18.9019 7.94058C19.0761 7.76363 19.2285 7.43186 19.2285 7.21068C19.2285 7.01161 19.7511 6.32595 20.4043 5.72876C21.0575 5.10945 21.972 4.51226 22.4075 4.37955C23.0607 4.18048 23.3873 4.2026 23.997 4.4459ZM21.4712 6.72408C21.3188 6.72408 21.1881 6.8789 21.1881 7.05585C21.1881 7.23279 21.101 7.38762 20.9704 7.38762C20.8615 7.38762 20.7527 7.52033 20.7527 7.65304C20.7744 7.80787 20.622 8.09541 20.4261 8.27235C20.2301 8.4493 20.0777 8.73683 20.0994 8.86954C20.0994 9.02437 19.9035 9.59944 19.664 10.1524C19.2938 10.9929 19.2503 11.5016 19.3156 13.2932C19.3591 14.4876 19.5116 15.9031 19.6422 16.4561C19.7946 17.009 20.1212 18.0044 20.3607 18.6679C20.622 19.3315 21.0139 20.1277 21.2535 20.4374C21.4712 20.747 21.8631 21.0567 22.1244 21.123C22.3857 21.1894 22.8647 21.1009 23.2131 20.9018C23.5397 20.7028 23.801 20.5037 23.801 20.4374C23.801 20.371 23.9752 20.1277 24.1929 19.8844C24.4107 19.6411 24.8244 18.6016 25.0856 17.562C25.4558 16.1907 25.6082 15.0848 25.6082 13.4701C25.6082 12.2536 25.5647 10.6611 25.4993 9.93122C25.434 9.20132 25.2816 8.38294 25.151 8.09541C24.9985 7.82999 24.8897 7.43186 24.8897 7.21068C24.9115 7.01161 24.7373 6.65772 24.5195 6.45866C24.3018 6.23748 23.7792 6.01629 23.3655 5.92782C22.7558 5.81723 22.5163 5.9057 22.168 6.25959C21.9284 6.52501 21.6018 6.74619 21.4712 6.72408Z" fill="#1D1D1D"/>
</svg>
